<svg xmlns="http://www.w3.org/2000/svg" width="375" height="384" viewBox="0 0 375 384" version="1.1">
	<path d="M 23 192.500 L 23 362 54.500 362 L 86 362 86 349 L 86 336 70 336 L 54 336 54 192 L 54 48 70 48 L 86 48 86 35.500 L 86 23 54.500 23 L 23 23 23 192.500 M 288 35.500 L 288 48 304.500 48 L 321 48 321 192 L 321 336 304.500 336 L 288 336 288 349 L 288 362 320 362 L 352 362 352 192.500 L 352 23 320 23 L 288 23 288 35.500 M 111.417 87.917 C 111.187 88.146, 111 137.758, 111 198.167 L 111 308 184.500 308 L 258 308 258 291 C 258 281.650, 257.887 273.898, 257.750 273.773 C 257.613 273.648, 234.550 273.311, 206.500 273.023 L 155.500 272.500 155.500 242.500 L 155.500 212.500 199 212 L 242.500 211.500 242.774 194.761 L 243.048 178.021 199.274 177.761 L 155.500 177.500 155.219 152 C 155.064 137.975, 155.184 125.492, 155.486 124.259 L 156.034 122.018 206.767 121.759 L 257.500 121.500 257.500 104.730 L 257.500 87.961 184.667 87.730 C 144.608 87.604, 111.646 87.688, 111.417 87.917" stroke="none" fill="#9ab7bf" fill-rule="evenodd"/>
</svg>