<svg xmlns="http://www.w3.org/2000/svg" width="211" height="207" viewBox="0 0 211 207" version="1.1">
	<path d="M 8 105 L 8 201 28 201 L 48 201 48 193.500 L 48 186 37 186 L 26 186 26 104.500 L 26 23 37 23 L 48 23 48 16 L 48 9 28 9 L 8 9 8 105 M 164 15.967 L 164 22.934 175.250 23.217 L 186.500 23.500 186.756 104.717 L 187.012 185.934 175.756 186.217 L 164.500 186.500 164.206 193.750 L 163.912 201 184.456 201 L 205 201 205 105 L 205 9 184.500 9 L 164 9 164 15.967 M 98.500 31.009 C 77.430 34.815, 64.809 47.286, 64.618 64.488 C 64.404 83.806, 77.011 96.137, 106 104.961 C 117.692 108.520, 126.127 113.412, 128.506 118.011 C 130.431 121.733, 130.679 128.834, 128.999 132.085 C 124.641 140.514, 113.780 143.862, 100.221 140.954 C 91.723 139.131, 84.084 130.548, 84.022 122.750 L 84 120 72.019 120 L 60.038 120 60.671 124.750 C 63.625 146.911, 82.610 160.457, 110.500 160.305 C 130.358 160.197, 144.313 153.207, 150.720 140.161 C 153.100 135.315, 153.500 133.273, 153.500 125.979 C 153.500 118.370, 153.149 116.745, 150.219 110.794 C 144.228 98.625, 133.666 91.458, 111.500 84.521 C 97.675 80.195, 91.718 76.531, 88.823 70.572 C 86.856 66.523, 86.773 65.702, 87.937 61.816 C 91.369 50.360, 107.214 45.316, 119.903 51.639 C 125.594 54.475, 128.581 58.267, 129.641 64 C 129.997 65.925, 130.786 67.831, 131.394 68.235 C 132.002 68.639, 137.127 68.976, 142.781 68.985 C 150.762 68.997, 153.185 68.681, 153.609 67.577 C 153.909 66.794, 153.438 63.307, 152.562 59.827 C 149.425 47.367, 139.251 37.011, 126.182 32.974 C 118.669 30.654, 105.600 29.726, 98.500 31.009" stroke="none" fill="#9ab7c0" fill-rule="evenodd"/>
</svg>