<?xml version="1.0" encoding="utf-8"?>
<svg viewBox="0 0 512.0 512.0" xmlns="http://www.w3.org/2000/svg">
<rect fill="transparent" height="512" rx="15%" width="512"/>
<path d="M120.6 181h66.7v215.5h-66.7zm33.3-107.8C128.8 73.2 114 88.3 114 108.5s14.6 35.3 37.3 35.3h.4c23.1 0 37.8-15.3 37.8-35.3-0.5-20.2-14.7-35.3-37.8-35.3zM208.6 181h63.9v29.5h.9c8.9-16.9 30.6-34.8 63-34.8 67.3 0 79.8 44.3 79.8 101.9V396.5H348.9v-98.5c0-23.5-0.4-53.7-32.7-53.7-32.7 0-37.7 25.5-37.7 51.9v100.3h-69.9V181z" fill="#cccccc"/>
</svg>