<svg xmlns="http://www.w3.org/2000/svg" viewBox="105.472 63.488 322.56 346.112" style="max-height: 500px" width="322.56" height="346.112">
<rect width="512" rx="15%" height="512" fill="transparent"/>
<path fill="#cccccc" d="M120.6 181h66.7v215.5h-66.7zm33.3-107.8C128.8 73.2 114 88.3 114 108.5s14.6 35.3 37.3 35.3h.4c23.1 0 37.8-15.3 37.8-35.3-0.5-20.2-14.7-35.3-37.8-35.3zM208.6 181h63.9v29.5h.9c8.9-16.9 30.6-34.8 63-34.8 67.3 0 79.8 44.3 79.8 101.9V396.5H348.9v-98.5c0-23.5-0.4-53.7-32.7-53.7-32.7 0-37.7 25.5-37.7 51.9v100.3h-69.9V181z"/>
</svg>